<?xml version="1.0" standalone="no"?><!DOCTYPE svg PUBLIC "-//W3C//DTD SVG 1.1//EN" "http://www.w3.org/Graphics/SVG/1.1/DTD/svg11.dtd"><svg t="1763468882357" class="icon" viewBox="0 0 1024 1024" version="1.1" xmlns="http://www.w3.org/2000/svg" p-id="2469" xmlns:xlink="http://www.w3.org/1999/xlink" width="200" height="200"><path d="M896 512a384 384 0 1 0-384 384 384 384 0 0 0 384-384z m64 0A448 448 0 1 1 512 64a448 448 0 0 1 448 448z" p-id="2470"></path><path d="M598.72 713.28a32 32 0 0 1-45.44 45.44l-224-224a32 32 0 0 1 0-45.44l224-224a32 32 0 0 1 45.44 45.44L397.12 512z" p-id="2471"></path></svg>